<svg width="32" height="32" viewBox="0 0 32 32" fill="none" xmlns="http://www.w3.org/2000/svg">
<path d="M16.33 16.15L13.86 18.62C13.5344 18.9447 13.276 19.3305 13.0997 19.7552C12.9234 20.1799 12.8327 20.6352 12.8327 21.095C12.8327 21.5549 12.9234 22.0102 13.0997 22.4349C13.276 22.8596 13.5344 23.2454 13.86 23.57C14.1847 23.8957 14.5704 24.154 14.9951 24.3303C15.4198 24.5066 15.8752 24.5974 16.335 24.5974C16.7948 24.5974 17.2502 24.5066 17.6749 24.3303C18.0996 24.154 18.4853 23.8957 18.81 23.57L22.7 19.68C24.0112 18.3663 24.7476 16.5861 24.7476 14.73C24.7476 12.874 24.0112 11.0937 22.7 9.78003C21.3863 8.46884 19.6061 7.73242 17.75 7.73242C15.8939 7.73242 14.1137 8.46884 12.8 9.78003L8.55999 14.02C6.21999 16.36 6.21999 20.16 8.55999 22.51" stroke="white" stroke-width="1.5" stroke-linecap="round" stroke-linejoin="round"/>
</svg>
